<svg width="31" height="32" viewBox="0 0 31 32" fill="none" xmlns="http://www.w3.org/2000/svg">
<g clip-path="url(#clip0_607_554)">
<path d="M9.73043 16C9.73043 16.5304 9.52782 17.0391 9.16717 17.4142C8.80653 17.7893 8.31739 18 7.80735 18C7.29732 18 6.80818 17.7893 6.44753 17.4142C6.08689 17.0391 5.88428 16.5304 5.88428 16C5.88428 15.4696 6.08689 14.9609 6.44753 14.5858C6.80818 14.2107 7.29732 14 7.80735 14C8.31739 14 8.80653 14.2107 9.16717 14.5858C9.52782 14.9609 9.73043 15.4696 9.73043 16ZM17.4227 16C17.4227 16.5304 17.2201 17.0391 16.8595 17.4142C16.4988 17.7893 16.0097 18 15.4997 18C14.9896 18 14.5005 17.7893 14.1398 17.4142C13.7792 17.0391 13.5766 16.5304 13.5766 16C13.5766 15.4696 13.7792 14.9609 14.1398 14.5858C14.5005 14.2107 14.9896 14 15.4997 14C16.0097 14 16.4988 14.2107 16.8595 14.5858C17.2201 14.9609 17.4227 15.4696 17.4227 16ZM23.192 18C23.702 18 24.1911 17.7893 24.5518 17.4142C24.9124 17.0391 25.115 16.5304 25.115 16C25.115 15.4696 24.9124 14.9609 24.5518 14.5858C24.1911 14.2107 23.702 14 23.192 14C22.6819 14 22.1928 14.2107 21.8321 14.5858C21.4715 14.9609 21.2689 15.4696 21.2689 16C21.2689 16.5304 21.4715 17.0391 21.8321 17.4142C22.1928 17.7893 22.6819 18 23.192 18Z" fill="#9E9E9E"/>
<path d="M4.2787 31.606L4.31716 31.598C7.83639 30.872 9.98639 29.914 10.9864 29.388C12.4587 29.7964 13.9761 30.0021 15.4998 30C23.996 30 30.8845 23.732 30.8845 16C30.8845 8.268 23.996 2 15.4998 2C7.0037 2 0.115234 8.268 0.115234 16C0.115234 19.52 1.54408 22.74 3.9037 25.2C3.73861 26.7802 3.40053 28.3356 2.896 29.836L2.89023 29.858C2.74686 30.2877 2.59037 30.7126 2.421 31.132C2.26908 31.504 2.56331 31.92 2.946 31.856C3.39151 31.7802 3.8358 31.6968 4.2787 31.606ZM5.81716 25.39C5.84409 25.0972 5.8086 24.8018 5.7132 24.5249C5.6178 24.248 5.46484 23.9964 5.26523 23.788C3.22677 21.66 2.03831 18.936 2.03831 16C2.03831 9.616 7.81523 4 15.4998 4C23.1845 4 28.9614 9.616 28.9614 16C28.9614 22.386 23.1845 28 15.4998 28C14.1443 28.0021 12.7943 27.8192 11.4845 27.456C11.0267 27.3284 10.5398 27.3811 10.1172 27.604C9.37293 27.996 7.73254 28.744 5.05177 29.39C5.42577 28.0843 5.682 26.7452 5.81716 25.39Z" fill="#9E9E9E"/>
</g>
<defs>
<clipPath id="clip0_607_554">
<rect width="30.7692" height="32" fill="white" transform="translate(0.115234)"/>
</clipPath>
</defs>
</svg>
