<svg width="32" height="32" viewBox="0 0 32 32" fill="none" xmlns="http://www.w3.org/2000/svg">
<path d="M4.00004 17.3333H5.33337V26.6667C5.33337 28.1373 6.52937 29.3333 8.00004 29.3333H24C25.4707 29.3333 26.6667 28.1373 26.6667 26.6667V17.3333H28C28.2637 17.3333 28.5214 17.2551 28.7407 17.1086C28.9599 16.962 29.1307 16.7538 29.2316 16.5102C29.3325 16.2666 29.3589 15.9986 29.3075 15.74C29.2561 15.4814 29.1291 15.2438 28.9427 15.0573L16.9427 3.05735C16.819 2.93342 16.6721 2.8351 16.5103 2.76802C16.3485 2.70094 16.1752 2.66641 16 2.66641C15.8249 2.66641 15.6515 2.70094 15.4898 2.76802C15.328 2.8351 15.1811 2.93342 15.0574 3.05735L3.05737 15.0573C2.87096 15.2438 2.74402 15.4814 2.6926 15.74C2.64117 15.9986 2.66758 16.2666 2.76847 16.5102C2.86936 16.7538 3.04022 16.962 3.25943 17.1086C3.47864 17.2551 3.73637 17.3333 4.00004 17.3333ZM16 5.88535L24 13.8853V20L24.0014 26.6667H8.00004V13.8867L16 5.88535Z" fill="#9E9E9E"/>
<path d="M15.9998 22.6667C18.9412 22.6667 21.3332 20.2747 21.3332 17.3333C21.3332 14.392 18.9412 12 15.9998 12C13.0585 12 10.6665 14.392 10.6665 17.3333C10.6665 20.2747 13.0585 22.6667 15.9998 22.6667ZM15.9998 14.6667C17.4705 14.6667 18.6665 15.8627 18.6665 17.3333C18.6665 18.804 17.4705 20 15.9998 20C14.5292 20 13.3332 18.804 13.3332 17.3333C13.3332 15.8627 14.5292 14.6667 15.9998 14.6667Z" fill="#9E9E9E"/>
</svg>
