<svg width="31" height="32" viewBox="0 0 31 32" fill="none" xmlns="http://www.w3.org/2000/svg">
<g clip-path="url(#clip0_607_942)">
<path d="M16.2241 8.53125H14.7788C14.6466 8.53125 14.5384 8.64375 14.5384 8.78125V17.3844C14.5384 17.4656 14.5745 17.5406 14.6376 17.5875L19.6045 21.3594C19.7127 21.4406 19.8629 21.4188 19.9411 21.3063L20.8004 20.0875C20.8816 19.9719 20.8575 19.8156 20.7494 19.7375L16.4645 16.5156V8.78125C16.4645 8.64375 16.3563 8.53125 16.2241 8.53125ZM22.8287 10.8813L27.5402 12.0781C27.6905 12.1156 27.8377 11.9969 27.8377 11.8375L27.8617 6.79063C27.8617 6.58125 27.6304 6.4625 27.4741 6.59375L22.7385 10.4406C22.7027 10.4694 22.6755 10.5081 22.6599 10.5523C22.6443 10.5965 22.6411 10.6444 22.6505 10.6904C22.6599 10.7364 22.6816 10.7788 22.7132 10.8125C22.7447 10.8463 22.7847 10.8701 22.8287 10.8813ZM27.8677 20.2906L26.164 19.6813C26.1046 19.6601 26.0396 19.6639 25.9829 19.6919C25.9262 19.72 25.8823 19.77 25.8605 19.8313C25.8034 19.9906 25.7433 20.1469 25.6802 20.3031C25.1454 21.6188 24.3792 22.8031 23.3996 23.8188C22.4309 24.8293 21.2829 25.6348 20.0192 26.1906C18.7101 26.7662 17.3029 27.0617 15.8816 27.0594C14.4453 27.0594 13.054 26.7688 11.7439 26.1906C10.4802 25.6348 9.33223 24.8293 8.36354 23.8188C7.38697 22.8031 6.62075 21.6188 6.08289 20.3031C5.53246 18.9409 5.25045 17.4776 5.25356 16C5.25356 14.5063 5.53301 13.0563 6.0889 11.6938C6.62375 10.3781 7.38998 9.19375 8.36955 8.17813C9.33824 7.16756 10.4863 6.36206 11.75 5.80625C13.054 5.22813 14.4483 4.9375 15.8846 4.9375C17.3209 4.9375 18.7121 5.22813 20.0222 5.80625C21.2859 6.36206 22.4339 7.16756 23.4026 8.17813C23.7091 8.5 23.9975 8.83438 24.262 9.1875L26.0588 7.725C23.6941 4.58125 20.0132 2.55938 15.8786 2.5625C8.67904 2.56563 2.89779 8.64688 2.96991 16.1375C3.04202 23.4969 8.79623 29.4375 15.8846 29.4375C21.4585 29.4375 26.2061 25.7625 28.015 20.6156C28.06 20.4844 27.9939 20.3375 27.8677 20.2906Z" fill="#9E9E9E"/>
</g>
<defs>
<clipPath id="clip0_607_942">
<rect width="30.7692" height="32" fill="white" transform="translate(0.115234)"/>
</clipPath>
</defs>
</svg>
