<svg width="31" height="32" viewBox="0 0 31 32" fill="none" xmlns="http://www.w3.org/2000/svg">
<path d="M26.3971 2.66665V5.35998C23.4228 2.83998 19.6279 1.33331 15.4997 1.33331C11.3715 1.33331 7.57664 2.83998 4.60228 5.35998V2.66665H2.6792V9.33331H9.08946V7.33331H5.35869C8.06381 4.85331 11.6151 3.33331 15.4997 3.33331C19.3843 3.33331 22.9228 4.85331 25.6407 7.33331H21.91V9.33331H28.3202V2.66665H26.3971Z" fill="#9E9E9E"/>
<path d="M24.3334 18.36L19.4616 16.1333C19.2949 16.0533 19.1026 16 18.8975 16H18.0642V10.1733C18.0642 8.41333 16.8334 6.84 15.1539 6.68C14.7103 6.639 14.2633 6.69429 13.8413 6.84236C13.4193 6.99044 13.0315 7.22807 12.7025 7.5402C12.3734 7.85233 12.1103 8.23215 11.9298 8.65558C11.7493 9.07901 11.6554 9.53682 11.6539 10V20.8667L9.25647 20.3333C9.01288 20.2933 7.94878 20.1333 7.03852 21.08L5.24365 22.96L11.8078 29.88C12.2821 30.3867 12.936 30.6667 13.6154 30.6667H22.0129C23.2693 30.6667 24.3334 29.7333 24.5385 28.44L25.718 21.1867C25.8087 20.6234 25.7231 20.0448 25.4738 19.5359C25.2246 19.0271 24.8248 18.6149 24.3334 18.36ZM23.1924 20.7467L22.0129 28H13.6154L8.87186 22.96L14.218 24.1467V10C14.218 9.62666 14.5001 9.33333 14.859 9.33333C15.218 9.33333 15.5001 9.62666 15.5001 10V18.24H17.7565L23.1924 20.7467Z" fill="#9E9E9E"/>
</svg>
